<svg width="290" height="290" xmlns="http://www.w3.org/2000/svg" xmlns:xlink="http://www.w3.org/1999/xlink" xml:space="preserve" overflow="hidden"><defs><filter id="fx0" x="-10%" y="-10%" width="120%" height="120%" filterUnits="userSpaceOnUse" primitiveUnits="userSpaceOnUse"><feComponentTransfer color-interpolation-filters="sRGB"><feFuncR type="discrete" tableValues="0 0"/><feFuncG type="discrete" tableValues="0 0"/><feFuncB type="discrete" tableValues="0 0"/><feFuncA type="linear" slope="0.4" intercept="0"/></feComponentTransfer><feGaussianBlur stdDeviation="3.24552 3.24552"/></filter><radialGradient cx="764078" cy="764078" r="1134451" gradientUnits="userSpaceOnUse" spreadMethod="pad" id="stroke1" gradientTransform="matrix(0.000360892 0 0 0.000360892 973 34)"><stop offset="0" stop-color="#FF717F"/><stop offset="0.0147059" stop-color="#FE707E"/><stop offset="0.0294118" stop-color="#FE707E"/><stop offset="0.0441176" stop-color="#FE707E"/><stop offset="0.0588235" stop-color="#FE707E"/><stop offset="0.0735294" stop-color="#FE707E"/><stop offset="0.0882353" stop-color="#FE707E"/><stop offset="0.102941" stop-color="#FE707E"/><stop offset="0.117647" stop-color="#FE6F7D"/><stop offset="0.132353" stop-color="#FD6F7D"/><stop offset="0.147059" stop-color="#FD6F7D"/><stop offset="0.161765" stop-color="#FD6E7C"/><stop offset="0.176471" stop-color="#FD6E7C"/><stop offset="0.191176" stop-color="#FC6D7B"/><stop offset="0.205882" stop-color="#FC6D7B"/><stop offset="0.220588" stop-color="#FC6D7A"/><stop offset="0.235294" stop-color="#FB6C7A"/><stop offset="0.25" stop-color="#FB6C79"/><stop offset="0.264706" stop-color="#FA6B79"/><stop offset="0.279412" stop-color="#FA6A78"/><stop offset="0.294118" stop-color="#F96A78"/><stop offset="0.308824" stop-color="#F96977"/><stop offset="0.323529" stop-color="#F86876"/><stop offset="0.338235" stop-color="#F86875"/><stop offset="0.352941" stop-color="#F76775"/><stop offset="0.367647" stop-color="#F76674"/><stop offset="0.382353" stop-color="#F66573"/><stop offset="0.397059" stop-color="#F66572"/><stop offset="0.411765" stop-color="#F56471"/><stop offset="0.426471" stop-color="#F46371"/><stop offset="0.441176" stop-color="#F46270"/><stop offset="0.455882" stop-color="#F3616F"/><stop offset="0.470588" stop-color="#F2606E"/><stop offset="0.485294" stop-color="#F25F6D"/><stop offset="0.5" stop-color="#F15E6C"/><stop offset="0.514706" stop-color="#F05D6B"/><stop offset="0.529412" stop-color="#EF5C6A"/><stop offset="0.544118" stop-color="#EF5B68"/><stop offset="0.558824" stop-color="#EE5A67"/><stop offset="0.573529" stop-color="#ED5966"/><stop offset="0.588235" stop-color="#EC5865"/><stop offset="0.602941" stop-color="#EB5764"/><stop offset="0.617647" stop-color="#EA5563"/><stop offset="0.632353" stop-color="#E95461"/><stop offset="0.647059" stop-color="#E85360"/><stop offset="0.661765" stop-color="#E7525F"/><stop offset="0.676471" stop-color="#E6505D"/><stop offset="0.691176" stop-color="#E54F5C"/><stop offset="0.705882" stop-color="#E44E5B"/><stop offset="0.720588" stop-color="#E34C59"/><stop offset="0.735294" stop-color="#E24B58"/><stop offset="0.75" stop-color="#E14956"/><stop offset="0.764706" stop-color="#E04855"/><stop offset="0.779412" stop-color="#DF4753"/><stop offset="0.794118" stop-color="#DE4552"/><stop offset="0.808824" stop-color="#DD4350"/><stop offset="0.823529" stop-color="#DC424F"/><stop offset="0.838235" stop-color="#DB404D"/><stop offset="0.852941" stop-color="#D93F4B"/><stop offset="0.867647" stop-color="#D83D4A"/><stop offset="0.882353" stop-color="#D73C48"/><stop offset="0.897059" stop-color="#D63A46"/><stop offset="0.911765" stop-color="#D43844"/><stop offset="0.926471" stop-color="#D33643"/><stop offset="0.941176" stop-color="#D23541"/><stop offset="0.955882" stop-color="#D1333F"/><stop offset="0.970588" stop-color="#CF313D"/><stop offset="0.985294" stop-color="#CE2F3B"/><stop offset="1" stop-color="#CD2E3A"/></radialGradient></defs><g transform="translate(-959 -20)"><rect x="973" y="34" width="262" height="262" stroke="url(#stroke1)" stroke-width="27.5" stroke-miterlimit="8" fill="#F66472"/><g filter="url(#fx0)" transform="translate(1024 83)"><g><path d="M90.3091 12.4041C102.934 12.4041 114.737 14.7384 125.718 19.407 134.99 23.3524 144.064 30.1251 152.941 39.7254L133.493 58.9588C121.187 45.9393 106.84 39.4295 90.4524 39.4295 76.1702 39.4295 64.2084 44.1639 54.567 53.6326 44.9257 63.1014 40.105 74.6085 40.105 88.1541 40.105 102.16 45.1078 114.029 55.1133 123.761 65.1189 133.492 77.4611 138.358 92.1399 138.358 101.685 138.358 109.732 136.353 116.282 132.342 122.832 128.331 128.114 122.051 132.129 113.503L90.1118 113.503 90.1118 87.5623 163.1 87.5623 163.297 93.6775C163.297 106.368 160.01 118.401 153.434 129.777 146.859 141.153 138.343 149.832 127.888 155.816 117.433 161.8 105.17 164.792 91.0981 164.792 76.0402 164.792 62.6097 161.52 50.8066 154.978 39.0036 148.435 29.6663 139.114 22.7949 127.015 15.9235 114.916 12.4878 101.864 12.4878 87.8582 12.4878 68.6577 18.8332 51.9559 31.5239 37.7527 46.5819 20.8537 66.1769 12.4041 90.3091 12.4041Z" stroke="#FF97A1" stroke-width="2" stroke-linejoin="round" stroke-miterlimit="10" fill="#FFFFFF" fill-rule="evenodd"/></g></g><path d="M1110.82 91.9192C1123.45 91.9192 1135.25 94.2535 1146.23 98.9221 1155.5 102.867 1164.58 109.64 1173.46 119.24L1154.01 138.474C1141.7 125.454 1127.35 118.945 1110.97 118.945 1096.69 118.945 1084.72 123.679 1075.08 133.148 1065.44 142.616 1060.62 154.124 1060.62 167.669 1060.62 181.675 1065.62 193.544 1075.63 203.276 1085.63 213.007 1097.98 217.873 1112.66 217.873 1122.2 217.873 1130.25 215.868 1136.8 211.857 1143.35 207.846 1148.63 201.566 1152.64 193.018L1110.63 193.018 1110.63 167.077 1183.62 167.077 1183.81 173.193C1183.81 185.883 1180.52 197.917 1173.95 209.292 1167.37 220.668 1158.86 229.348 1148.4 235.331 1137.95 241.315 1125.68 244.307 1111.61 244.307 1096.56 244.307 1083.12 241.036 1071.32 234.493 1059.52 227.95 1050.18 218.629 1043.31 206.531 1036.44 194.432 1033 181.379 1033 167.373 1033 148.173 1039.35 131.471 1052.04 117.268 1067.1 100.369 1086.69 91.9192 1110.82 91.9192Z" stroke="#FF97A1" stroke-width="2" stroke-linejoin="round" stroke-miterlimit="10" fill="#FFFFFF" fill-rule="evenodd"/><text fill="#000000" fill-opacity="0" font-family="Arial,Arial_MSFontService,sans-serif" font-size="152.388" x="1033" y="225.258">G</text></g></svg>